<svg width="10" height="13" viewBox="0 0 10 13" fill="none" xmlns="http://www.w3.org/2000/svg">
<path opacity="0.8" d="M0.656 13V0.471999H5.462C8.108 0.471999 9.332 1.876 9.332 3.604C9.332 5.062 8.504 5.998 7.532 6.34C8.414 6.61 9.746 7.492 9.746 9.328C9.746 11.686 7.946 13 5.57 13H0.656ZM2.276 5.692H5.138C6.956 5.692 7.658 4.972 7.658 3.748C7.658 2.632 6.866 1.858 5.39 1.858H2.276V5.692ZM2.276 7.06V11.632H5.372C6.938 11.632 8.036 10.894 8.036 9.328C8.036 7.978 7.172 7.06 5.048 7.06H2.276Z" fill="black"/>
</svg>
