<svg width="20" height="20" viewBox="0 0 20 20" fill="none" xmlns="http://www.w3.org/2000/svg">
<path fill-rule="evenodd" clip-rule="evenodd" d="M13.5797 8.00465L9.77299 13.0047C9.61632 13.2105 9.37382 13.3322 9.11549 13.3338H9.10965C8.85382 13.3338 8.61215 13.2155 8.45382 13.0138L6.42716 10.4247C6.14382 10.063 6.20715 9.53882 6.56965 9.25549C6.93216 8.97132 7.45549 9.03465 7.73966 9.39799L9.10049 11.1363L12.2538 6.99549C12.5322 6.62965 13.0555 6.55799 13.4222 6.83715C13.788 7.11632 13.8588 7.63882 13.5797 8.00465ZM15.0005 2.50049H5.00049C3.62132 2.50049 2.50049 3.62132 2.50049 5.00049V15.0005C2.50049 16.3788 3.62132 17.5005 5.00049 17.5005H15.0005C16.3788 17.5005 17.5005 16.3788 17.5005 15.0005V5.00049C17.5005 3.62132 16.3788 2.50049 15.0005 2.50049Z" fill="#7B1984"/>
<mask id="mask0_2035_4929" style="mask-type:luminance" maskUnits="userSpaceOnUse" x="2" y="2" width="16" height="16">
<path fill-rule="evenodd" clip-rule="evenodd" d="M13.5797 8.00465L9.77299 13.0047C9.61632 13.2105 9.37382 13.3322 9.11549 13.3338H9.10965C8.85382 13.3338 8.61215 13.2155 8.45382 13.0138L6.42716 10.4247C6.14382 10.063 6.20715 9.53882 6.56965 9.25549C6.93216 8.97132 7.45549 9.03465 7.73966 9.39799L9.10049 11.1363L12.2538 6.99549C12.5322 6.62965 13.0555 6.55799 13.4222 6.83715C13.788 7.11632 13.8588 7.63882 13.5797 8.00465ZM15.0005 2.50049H5.00049C3.62132 2.50049 2.50049 3.62132 2.50049 5.00049V15.0005C2.50049 16.3788 3.62132 17.5005 5.00049 17.5005H15.0005C16.3788 17.5005 17.5005 16.3788 17.5005 15.0005V5.00049C17.5005 3.62132 16.3788 2.50049 15.0005 2.50049Z" fill="white"/>
</mask>
<g mask="url(#mask0_2035_4929)">
<rect width="20" height="20" fill="#7B1984"/>
</g>
</svg>
