<svg width="16" height="16" viewBox="0 0 16 16" fill="none" xmlns="http://www.w3.org/2000/svg">
<path d="M12.4106 5.59287H3.58887C3.3568 5.59287 3.13424 5.50068 2.97015 5.33659C2.80605 5.17249 2.71387 4.94993 2.71387 4.71787V3.58887C2.71387 3.3568 2.80605 3.13424 2.97015 2.97015C3.13424 2.80605 3.3568 2.71387 3.58887 2.71387H12.4106C12.6427 2.71387 12.8652 2.80605 13.0293 2.97015C13.1934 3.13424 13.2856 3.3568 13.2856 3.58887V4.71787C13.2853 4.94983 13.193 5.1722 13.029 5.33622C12.8649 5.50024 12.6426 5.59254 12.4106 5.59287ZM3.58887 3.46387C3.55572 3.46387 3.52392 3.47704 3.50048 3.50048C3.47704 3.52392 3.46387 3.55572 3.46387 3.58887V4.71787C3.46387 4.75102 3.47704 4.78281 3.50048 4.80626C3.52392 4.8297 3.55572 4.84287 3.58887 4.84287H12.4106C12.4438 4.84287 12.4756 4.8297 12.499 4.80626C12.5224 4.78281 12.5356 4.75102 12.5356 4.71787V3.58887C12.5356 3.55572 12.5224 3.52392 12.499 3.50048C12.4756 3.47704 12.4438 3.46387 12.4106 3.46387H3.58887ZM12.4106 13.2854H3.58887C3.3568 13.2854 3.13424 13.1932 2.97015 13.0291C2.80605 12.865 2.71387 12.6424 2.71387 12.4104V11.2814C2.71387 11.0493 2.80605 10.8267 2.97015 10.6626C3.13424 10.4986 3.3568 10.4064 3.58887 10.4064H12.4106C12.6426 10.4067 12.8649 10.499 13.029 10.663C13.193 10.827 13.2853 11.0494 13.2856 11.2814V12.4104C13.2856 12.6424 13.1934 12.865 13.0293 13.0291C12.8652 13.1932 12.6427 13.2854 12.4106 13.2854ZM3.58887 11.1564C3.55572 11.1564 3.52392 11.1695 3.50048 11.193C3.47704 11.2164 3.46387 11.2482 3.46387 11.2814V12.4104C3.46387 12.4435 3.47704 12.4753 3.50048 12.4988C3.52392 12.5222 3.55572 12.5354 3.58887 12.5354H12.4106C12.4438 12.5354 12.4756 12.5222 12.499 12.4988C12.5224 12.4753 12.5356 12.4435 12.5356 12.4104V11.2814C12.5356 11.2482 12.5224 11.2164 12.499 11.193C12.4756 11.1695 12.4438 11.1564 12.4106 11.1564H3.58887ZM12.4106 9.43912H3.58887C3.3568 9.43912 3.13424 9.34693 2.97015 9.18284C2.80605 9.01874 2.71387 8.79618 2.71387 8.56412V7.43512C2.71387 7.20305 2.80605 6.98049 2.97015 6.8164C3.13424 6.6523 3.3568 6.56012 3.58887 6.56012H12.4106C12.6426 6.56045 12.8649 6.65274 13.029 6.81676C13.193 6.98079 13.2853 7.20315 13.2856 7.43512V8.56412C13.2856 8.79618 13.1934 9.01874 13.0293 9.18284C12.8652 9.34693 12.6427 9.43912 12.4106 9.43912ZM3.58887 7.31012C3.55572 7.31012 3.52392 7.32329 3.50048 7.34673C3.47704 7.37017 3.46387 7.40197 3.46387 7.43512V8.56412C3.46387 8.59727 3.47704 8.62906 3.50048 8.65251C3.52392 8.67595 3.55572 8.68912 3.58887 8.68912H12.4106C12.4438 8.68912 12.4756 8.67595 12.499 8.65251C12.5224 8.62906 12.5356 8.59727 12.5356 8.56412V7.43512C12.5356 7.40197 12.5224 7.37017 12.499 7.34673C12.4756 7.32329 12.4438 7.31012 12.4106 7.31012H3.58887Z" fill="#231F20" fill-opacity="0.8"/>
</svg>
