<svg width="11" height="14" viewBox="0 0 11 14" fill="none" xmlns="http://www.w3.org/2000/svg">
<g opacity="0.8">
<path d="M0.414 9.364H1.998C2.142 11.038 3.186 11.902 4.95 11.902C6.606 11.902 7.704 11.146 7.704 9.616C7.704 8.482 7.164 7.78 5.13 7.006C2.808 6.124 1.98 5.242 1.98 3.784C1.98 1.948 3.276 0.291999 6.084 0.291999C8.874 0.291999 10.062 1.894 10.08 3.766H8.514C8.37 2.488 7.758 1.588 5.958 1.588C4.392 1.588 3.6 2.506 3.6 3.604C3.6 4.468 3.996 5.008 5.868 5.728C8.46 6.682 9.36 7.78 9.36 9.4C9.36 11.362 8.1 13.18 4.788 13.18C1.89 13.18 0.468 11.596 0.414 9.364Z" fill="black"/>
<path d="M0 7.528H10.314V8.428H0V7.528Z" fill="black"/>
</g>
</svg>
