<svg width="20" height="20" viewBox="0 0 20 20" fill="none" xmlns="http://www.w3.org/2000/svg">
<g opacity="0.6">
<path fill-rule="evenodd" clip-rule="evenodd" d="M4.99447 4.16699C4.5353 4.16699 4.16113 4.54116 4.16113 5.00033V15.0003C4.16113 15.4595 4.5353 15.8337 4.99447 15.8337H14.9945C15.4536 15.8337 15.8278 15.4595 15.8278 15.0003V5.00033C15.8278 4.54116 15.4536 4.16699 14.9945 4.16699H4.99447ZM14.9971 17.5H4.99707C3.61874 17.5 2.49707 16.3783 2.49707 15V5C2.49707 3.62167 3.61874 2.5 4.99707 2.5H14.9971C16.3754 2.5 17.4971 3.62167 17.4971 5V15C17.4971 16.3783 16.3754 17.5 14.9971 17.5Z" fill="black" fill-opacity="0.6"/>
<mask id="mask0_2027_2949" style="mask-type:luminance" maskUnits="userSpaceOnUse" x="2" y="2" width="16" height="16">
<path fill-rule="evenodd" clip-rule="evenodd" d="M4.99447 4.16699C4.5353 4.16699 4.16113 4.54116 4.16113 5.00033V15.0003C4.16113 15.4595 4.5353 15.8337 4.99447 15.8337H14.9945C15.4536 15.8337 15.8278 15.4595 15.8278 15.0003V5.00033C15.8278 4.54116 15.4536 4.16699 14.9945 4.16699H4.99447ZM14.9971 17.5H4.99707C3.61874 17.5 2.49707 16.3783 2.49707 15V5C2.49707 3.62167 3.61874 2.5 4.99707 2.5H14.9971C16.3754 2.5 17.4971 3.62167 17.4971 5V15C17.4971 16.3783 16.3754 17.5 14.9971 17.5Z" fill="white"/>
</mask>
<g mask="url(#mask0_2027_2949)">
<rect width="20" height="20" fill="black" fill-opacity="0.6"/>
</g>
</g>
</svg>
